<svg xmlns="http://www.w3.org/2000/svg" width="960" height="260" viewBox="0 0 960 260">
  <rect width="100%" height="100%" fill="#ffffff"/>
  <text x="34" y="22" font-family="sans-serif" font-size="14" fill="#111827">r0024d0_c93a5fb4.dat.jsonl byte 14</text>
  <line x1="34" y1="226" x2="926" y2="226" stroke="#9ca3af" stroke-width="1"/>
  <line x1="34" y1="34" x2="34" y2="226" stroke="#9ca3af" stroke-width="1"/>
  <text x="34" y="252" font-family="sans-serif" font-size="11" fill="#4b5563">record order</text>
  <text x="38" y="26" font-family="sans-serif" font-size="11" fill="#4b5563">min=105 max=150</text>
  <polyline points="34.0,226.0 34.8,110.8 35.5,80.9 36.3,46.8 37.1,68.1 37.9,59.6 38.6,55.3 39.4,76.7 40.2,89.5 41.0,42.5 41.7,55.3 42.5,51.1 43.3,55.3 44.1,51.1 44.8,51.1 45.6,55.3 46.4,51.1 47.2,51.1 47.9,55.3 48.7,55.3 49.5,59.6 50.2,42.5 51.0,55.3 51.8,51.1 52.6,55.3 53.3,76.7 54.1,42.5 54.9,46.8 55.7,55.3 56.4,59.6 57.2,68.1 58.0,51.1 58.8,55.3 59.5,51.1 60.3,59.6 61.1,51.1 61.9,55.3 62.6,59.6 63.4,55.3 64.2,51.1 64.9,59.6 65.7,59.6 66.5,51.1 67.3,46.8 68.0,51.1 68.8,42.5 69.6,72.4 70.4,55.3 71.1,51.1 71.9,55.3 72.7,55.3 73.5,55.3 74.2,55.3 75.0,55.3 75.8,51.1 76.5,59.6 77.3,59.6 78.1,55.3 78.9,51.1 79.6,51.1 80.4,55.3 81.2,55.3 82.0,59.6 82.7,59.6 83.5,55.3 84.3,59.6 85.1,63.9 85.8,46.8 86.6,55.3 87.4,63.9 88.2,55.3 88.9,46.8 89.7,51.1 90.5,55.3 91.2,55.3 92.0,59.6 92.8,55.3 93.6,55.3 94.3,55.3 95.1,51.1 95.9,55.3 96.7,51.1 97.4,59.6 98.2,59.6 99.0,51.1 99.8,46.8 100.5,59.6 101.3,55.3 102.1,55.3 102.9,42.5 103.6,51.1 104.4,51.1 105.2,55.3 105.9,46.8 106.7,55.3 107.5,59.6 108.3,55.3 109.0,55.3 109.8,55.3 110.6,55.3 111.4,55.3 112.1,55.3 112.9,59.6 113.7,46.8 114.5,59.6 115.2,55.3 116.0,55.3 116.8,55.3 117.6,55.3 118.3,51.1 119.1,51.1 119.9,55.3 120.6,55.3 121.4,55.3 122.2,59.6 123.0,51.1 123.7,51.1 124.5,51.1 125.3,55.3 126.1,55.3 126.8,55.3 127.6,51.1 128.4,55.3 129.2,55.3 129.9,55.3 130.7,51.1 131.5,59.6 132.3,59.6 133.0,55.3 133.8,59.6 134.6,51.1 135.3,63.9 136.1,55.3 136.9,51.1 137.7,51.1 138.4,42.5 139.2,59.6 140.0,55.3 140.8,55.3 141.5,55.3 142.3,51.1 143.1,59.6 143.9,46.8 144.6,55.3 145.4,55.3 146.2,55.3 147.0,55.3 147.7,55.3 148.5,55.3 149.3,59.6 150.0,55.3 150.8,55.3 151.6,59.6 152.4,42.5 153.1,55.3 153.9,51.1 154.7,55.3 155.5,55.3 156.2,55.3 157.0,51.1 157.8,63.9 158.6,51.1 159.3,55.3 160.1,59.6 160.9,51.1 161.6,55.3 162.4,59.6 163.2,55.3 164.0,59.6 164.7,55.3 165.5,59.6 166.3,59.6 167.1,51.1 167.8,59.6 168.6,55.3 169.4,51.1 170.2,55.3 170.9,55.3 171.7,55.3 172.5,51.1 173.3,55.3 174.0,51.1 174.8,59.6 175.6,55.3 176.3,51.1 177.1,51.1 177.9,55.3 178.7,55.3 179.4,59.6 180.2,55.3 181.0,51.1 181.8,55.3 182.5,46.8 183.3,51.1 184.1,59.6 184.9,46.8 185.6,59.6 186.4,51.1 187.2,55.3 188.0,55.3 188.7,55.3 189.5,51.1 190.3,59.6 191.0,59.6 191.8,51.1 192.6,63.9 193.4,55.3 194.1,46.8 194.9,46.8 195.7,55.3 196.5,51.1 197.2,55.3 198.0,59.6 198.8,55.3 199.6,55.3 200.3,51.1 201.1,55.3 201.9,55.3 202.7,59.6 203.4,55.3 204.2,55.3 205.0,55.3 205.7,51.1 206.5,42.5 207.3,55.3 208.1,55.3 208.8,51.1 209.6,55.3 210.4,51.1 211.2,51.1 211.9,55.3 212.7,42.5 213.5,51.1 214.3,55.3 215.0,55.3 215.8,55.3 216.6,51.1 217.4,46.8 218.1,55.3 218.9,55.3 219.7,51.1 220.4,51.1 221.2,42.5 222.0,55.3 222.8,55.3 223.5,55.3 224.3,55.3 225.1,55.3 225.9,51.1 226.6,59.6 227.4,51.1 228.2,55.3 229.0,51.1 229.7,55.3 230.5,55.3 231.3,51.1 232.1,55.3 232.8,55.3 233.6,51.1 234.4,55.3 235.1,51.1 235.9,46.8 236.7,55.3 237.5,59.6 238.2,59.6 239.0,55.3 239.8,51.1 240.6,51.1 241.3,51.1 242.1,55.3 242.9,55.3 243.7,51.1 244.4,55.3 245.2,55.3 246.0,51.1 246.7,46.8 247.5,55.3 248.3,59.6 249.1,46.8 249.8,55.3 250.6,55.3 251.4,55.3 252.2,51.1 252.9,51.1 253.7,59.6 254.5,59.6 255.3,51.1 256.0,46.8 256.8,55.3 257.6,55.3 258.4,55.3 259.1,55.3 259.9,55.3 260.7,55.3 261.4,55.3 262.2,55.3 263.0,51.1 263.8,51.1 264.5,55.3 265.3,51.1 266.1,55.3 266.9,42.5 267.6,51.1 268.4,55.3 269.2,55.3 270.0,51.1 270.7,59.6 271.5,55.3 272.3,55.3 273.1,55.3 273.8,55.3 274.6,55.3 275.4,55.3 276.1,55.3 276.9,51.1 277.7,51.1 278.5,55.3 279.2,51.1 280.0,55.3 280.8,55.3 281.6,51.1 282.3,55.3 283.1,55.3 283.9,55.3 284.7,55.3 285.4,55.3 286.2,51.1 287.0,55.3 287.8,55.3 288.5,59.6 289.3,51.1 290.1,55.3 290.8,55.3 291.6,55.3 292.4,55.3 293.2,55.3 293.9,55.3 294.7,51.1 295.5,55.3 296.3,59.6 297.0,51.1 297.8,59.6 298.6,55.3 299.4,59.6 300.1,59.6 300.9,59.6 301.7,51.1 302.5,46.8 303.2,55.3 304.0,59.6 304.8,59.6 305.5,51.1 306.3,51.1 307.1,59.6 307.9,55.3 308.6,51.1 309.4,46.8 310.2,59.6 311.0,51.1 311.7,55.3 312.5,55.3 313.3,51.1 314.1,55.3 314.8,55.3 315.6,59.6 316.4,51.1 317.2,55.3 317.9,55.3 318.7,42.5 319.5,55.3 320.2,51.1 321.0,55.3 321.8,55.3 322.6,51.1 323.3,55.3 324.1,59.6 324.9,59.6 325.7,59.6 326.4,55.3 327.2,55.3 328.0,46.8 328.8,55.3 329.5,55.3 330.3,46.8 331.1,55.3 331.8,55.3 332.6,59.6 333.4,51.1 334.2,59.6 334.9,59.6 335.7,51.1 336.5,59.6 337.3,59.6 338.0,55.3 338.8,55.3 339.6,55.3 340.4,46.8 341.1,55.3 341.9,55.3 342.7,55.3 343.5,51.1 344.2,51.1 345.0,55.3 345.8,51.1 346.5,46.8 347.3,55.3 348.1,59.6 348.9,51.1 349.6,55.3 350.4,51.1 351.2,51.1 352.0,59.6 352.7,51.1 353.5,55.3 354.3,59.6 355.1,59.6 355.8,51.1 356.6,59.6 357.4,59.6 358.2,51.1 358.9,51.1 359.7,51.1 360.5,59.6 361.2,46.8 362.0,59.6 362.8,51.1 363.6,51.1 364.3,59.6 365.1,55.3 365.9,59.6 366.7,51.1 367.4,55.3 368.2,55.3 369.0,55.3 369.8,51.1 370.5,59.6 371.3,55.3 372.1,51.1 372.9,55.3 373.6,55.3 374.4,55.3 375.2,55.3 375.9,59.6 376.7,51.1 377.5,55.3 378.3,51.1 379.0,59.6 379.8,59.6 380.6,55.3 381.4,59.6 382.1,55.3 382.9,59.6 383.7,51.1 384.5,55.3 385.2,55.3 386.0,55.3 386.8,59.6 387.6,55.3 388.3,55.3 389.1,51.1 389.9,59.6 390.6,59.6 391.4,55.3 392.2,55.3 393.0,55.3 393.7,51.1 394.5,51.1 395.3,51.1 396.1,55.3 396.8,55.3 397.6,63.9 398.4,55.3 399.2,51.1 399.9,55.3 400.7,55.3 401.5,51.1 402.2,55.3 403.0,46.8 403.8,55.3 404.6,55.3 405.3,55.3 406.1,59.6 406.9,59.6 407.7,59.6 408.4,59.6 409.2,55.3 410.0,59.6 410.8,51.1 411.5,55.3 412.3,46.8 413.1,63.9 413.9,55.3 414.6,55.3 415.4,51.1 416.2,59.6 416.9,55.3 417.7,51.1 418.5,55.3 419.3,59.6 420.0,59.6 420.8,55.3 421.6,55.3 422.4,55.3 423.1,59.6 423.9,55.3 424.7,46.8 425.5,46.8 426.2,59.6 427.0,55.3 427.8,55.3 428.6,55.3 429.3,55.3 430.1,55.3 430.9,68.1 431.6,59.6 432.4,46.8 433.2,51.1 434.0,42.5 434.7,51.1 435.5,55.3 436.3,51.1 437.1,51.1 437.8,51.1 438.6,55.3 439.4,55.3 440.2,55.3 440.9,55.3 441.7,51.1 442.5,55.3 443.3,59.6 444.0,59.6 444.8,51.1 445.6,51.1 446.3,51.1 447.1,55.3 447.9,55.3 448.7,51.1 449.4,55.3 450.2,46.8 451.0,59.6 451.8,59.6 452.5,42.5 453.3,46.8 454.1,55.3 454.9,51.1 455.6,59.6 456.4,55.3 457.2,55.3 458.0,59.6 458.7,55.3 459.5,51.1 460.3,55.3 461.0,55.3 461.8,59.6 462.6,55.3 463.4,55.3 464.1,51.1 464.9,59.6 465.7,51.1 466.5,55.3 467.2,51.1 468.0,51.1 468.8,59.6 469.6,46.8 470.3,59.6 471.1,51.1 471.9,55.3 472.7,59.6 473.4,51.1 474.2,55.3 475.0,51.1 475.7,51.1 476.5,55.3 477.3,51.1 478.1,51.1 478.8,59.6 479.6,51.1 480.4,55.3 481.2,51.1 481.9,51.1 482.7,59.6 483.5,55.3 484.3,51.1 485.0,55.3 485.8,51.1 486.6,55.3 487.3,55.3 488.1,59.6 488.9,55.3 489.7,55.3 490.4,51.1 491.2,55.3 492.0,59.6 492.8,51.1 493.5,55.3 494.3,55.3 495.1,59.6 495.9,63.9 496.6,59.6 497.4,51.1 498.2,59.6 499.0,51.1 499.7,55.3 500.5,51.1 501.3,55.3 502.0,46.8 502.8,51.1 503.6,63.9 504.4,59.6 505.1,63.9 505.9,46.8 506.7,55.3 507.5,59.6 508.2,59.6 509.0,55.3 509.8,59.6 510.6,51.1 511.3,55.3 512.1,55.3 512.9,46.8 513.7,51.1 514.4,51.1 515.2,55.3 516.0,51.1 516.7,51.1 517.5,59.6 518.3,51.1 519.1,55.3 519.8,51.1 520.6,51.1 521.4,55.3 522.2,51.1 522.9,59.6 523.7,59.6 524.5,55.3 525.3,51.1 526.0,55.3 526.8,55.3 527.6,55.3 528.4,55.3 529.1,55.3 529.9,55.3 530.7,51.1 531.4,55.3 532.2,55.3 533.0,55.3 533.8,55.3 534.5,59.6 535.3,59.6 536.1,55.3 536.9,55.3 537.6,46.8 538.4,55.3 539.2,63.9 540.0,59.6 540.7,55.3 541.5,46.8 542.3,55.3 543.1,51.1 543.8,55.3 544.6,55.3 545.4,55.3 546.1,59.6 546.9,55.3 547.7,55.3 548.5,55.3 549.2,51.1 550.0,59.6 550.8,55.3 551.6,55.3 552.3,59.6 553.1,55.3 553.9,59.6 554.7,59.6 555.4,42.5 556.2,55.3 557.0,55.3 557.8,55.3 558.5,46.8 559.3,46.8 560.1,55.3 560.8,51.1 561.6,46.8 562.4,46.8 563.2,63.9 563.9,51.1 564.7,51.1 565.5,42.5 566.3,55.3 567.0,59.6 567.8,55.3 568.6,51.1 569.4,42.5 570.1,59.6 570.9,59.6 571.7,46.8 572.4,55.3 573.2,63.9 574.0,59.6 574.8,59.6 575.5,51.1 576.3,59.6 577.1,63.9 577.9,59.6 578.6,59.6 579.4,46.8 580.2,63.9 581.0,63.9 581.7,51.1 582.5,51.1 583.3,55.3 584.1,63.9 584.8,34.0 585.6,42.5 586.4,68.1 587.1,46.8 587.9,59.6 588.7,38.3 589.5,59.6 590.2,63.9 591.0,51.1 591.8,46.8 592.6,55.3 593.3,46.8 594.1,55.3 594.9,63.9 595.7,55.3 596.4,51.1 597.2,63.9 598.0,68.1 598.8,55.3 599.5,55.3 600.3,51.1 601.1,59.6 601.8,55.3 602.6,55.3 603.4,46.8 604.2,55.3 604.9,51.1 605.7,63.9 606.5,55.3 607.3,55.3 608.0,59.6 608.8,59.6 609.6,55.3 610.4,51.1 611.1,51.1 611.9,55.3 612.7,55.3 613.5,59.6 614.2,55.3 615.0,51.1 615.8,51.1 616.5,51.1 617.3,55.3 618.1,51.1 618.9,59.6 619.6,55.3 620.4,46.8 621.2,46.8 622.0,59.6 622.7,59.6 623.5,55.3 624.3,59.6 625.1,55.3 625.8,59.6 626.6,63.9 627.4,55.3 628.2,55.3 628.9,59.6 629.7,59.6 630.5,55.3 631.2,59.6 632.0,51.1 632.8,51.1 633.6,59.6 634.3,55.3 635.1,46.8 635.9,51.1 636.7,59.6 637.4,55.3 638.2,55.3 639.0,59.6 639.8,51.1 640.5,59.6 641.3,59.6 642.1,59.6 642.8,55.3 643.6,55.3 644.4,59.6 645.2,55.3 645.9,51.1 646.7,55.3 647.5,55.3 648.3,51.1 649.0,59.6 649.8,55.3 650.6,59.6 651.4,55.3 652.1,59.6 652.9,42.5 653.7,63.9 654.5,51.1 655.2,55.3 656.0,55.3 656.8,55.3 657.5,42.5 658.3,55.3 659.1,55.3 659.9,51.1 660.6,55.3 661.4,46.8 662.2,51.1 663.0,55.3 663.7,59.6 664.5,51.1 665.3,51.1 666.1,55.3 666.8,55.3 667.6,55.3 668.4,55.3 669.2,51.1 669.9,51.1 670.7,55.3 671.5,51.1 672.2,59.6 673.0,51.1 673.8,55.3 674.6,51.1 675.3,55.3 676.1,55.3 676.9,51.1 677.7,55.3 678.4,51.1 679.2,55.3 680.0,55.3 680.8,55.3 681.5,51.1 682.3,51.1 683.1,55.3 683.9,59.6 684.6,51.1 685.4,55.3 686.2,55.3 686.9,51.1 687.7,51.1 688.5,55.3 689.3,55.3 690.0,55.3 690.8,51.1 691.6,51.1 692.4,51.1 693.1,59.6 693.9,59.6 694.7,55.3 695.5,55.3 696.2,55.3 697.0,55.3 697.8,55.3 698.6,59.6 699.3,55.3 700.1,38.3 700.9,51.1 701.6,55.3 702.4,51.1 703.2,55.3 704.0,46.8 704.7,55.3 705.5,59.6 706.3,59.6 707.1,55.3 707.8,55.3 708.6,55.3 709.4,55.3 710.2,51.1 710.9,55.3 711.7,51.1 712.5,55.3 713.3,51.1 714.0,55.3 714.8,55.3 715.6,51.1 716.3,51.1 717.1,51.1 717.9,46.8 718.7,51.1 719.4,55.3 720.2,55.3 721.0,55.3 721.8,46.8 722.5,51.1 723.3,55.3 724.1,59.6 724.9,55.3 725.6,38.3 726.4,63.9 727.2,55.3 727.9,55.3 728.7,55.3 729.5,55.3 730.3,59.6 731.0,42.5 731.8,59.6 732.6,59.6 733.4,46.8 734.1,59.6 734.9,55.3 735.7,46.8 736.5,59.6 737.2,51.1 738.0,63.9 738.8,51.1 739.6,55.3 740.3,59.6 741.1,63.9 741.9,55.3 742.6,51.1 743.4,46.8 744.2,55.3 745.0,59.6 745.7,55.3 746.5,59.6 747.3,55.3 748.1,59.6 748.8,59.6 749.6,51.1 750.4,46.8 751.2,51.1 751.9,55.3 752.7,46.8 753.5,46.8 754.3,59.6 755.0,59.6 755.8,55.3 756.6,55.3 757.3,38.3 758.1,59.6 758.9,55.3 759.7,46.8 760.4,55.3 761.2,51.1 762.0,55.3 762.8,51.1 763.5,55.3 764.3,51.1 765.1,55.3 765.9,51.1 766.6,55.3 767.4,55.3 768.2,51.1 769.0,55.3 769.7,55.3 770.5,55.3 771.3,51.1 772.0,55.3 772.8,46.8 773.6,55.3 774.4,59.6 775.1,55.3 775.9,51.1 776.7,59.6 777.5,51.1 778.2,51.1 779.0,51.1 779.8,51.1 780.6,55.3 781.3,42.5 782.1,51.1 782.9,51.1 783.7,59.6 784.4,55.3 785.2,59.6 786.0,55.3 786.7,51.1 787.5,55.3 788.3,59.6 789.1,59.6 789.8,46.8 790.6,55.3 791.4,55.3 792.2,55.3 792.9,55.3 793.7,51.1 794.5,55.3 795.3,59.6 796.0,55.3 796.8,46.8 797.6,51.1 798.4,46.8 799.1,63.9 799.9,55.3 800.7,51.1 801.4,59.6 802.2,46.8 803.0,59.6 803.8,55.3 804.5,55.3 805.3,51.1 806.1,51.1 806.9,55.3 807.6,55.3 808.4,51.1 809.2,51.1 810.0,51.1 810.7,46.8 811.5,55.3 812.3,51.1 813.0,55.3 813.8,55.3 814.6,55.3 815.4,55.3 816.1,55.3 816.9,55.3 817.7,55.3 818.5,51.1 819.2,46.8 820.0,51.1 820.8,51.1 821.6,59.6 822.3,59.6 823.1,55.3 823.9,55.3 824.7,51.1 825.4,55.3 826.2,59.6 827.0,55.3 827.7,51.1 828.5,51.1 829.3,55.3 830.1,55.3 830.8,55.3 831.6,51.1 832.4,59.6 833.2,46.8 833.9,55.3 834.7,55.3 835.5,55.3 836.3,51.1 837.0,59.6 837.8,55.3 838.6,55.3 839.4,51.1 840.1,55.3 840.9,59.6 841.7,51.1 842.4,59.6 843.2,51.1 844.0,51.1 844.8,55.3 845.5,51.1 846.3,59.6 847.1,59.6 847.9,55.3 848.6,51.1 849.4,63.9 850.2,55.3 851.0,51.1 851.7,55.3 852.5,51.1 853.3,59.6 854.1,55.3 854.8,51.1 855.6,55.3 856.4,51.1 857.1,51.1 857.9,42.5 858.7,55.3 859.5,46.8 860.2,59.6 861.0,55.3 861.8,42.5 862.6,59.6 863.3,55.3 864.1,55.3 864.9,59.6 865.7,46.8 866.4,55.3 867.2,59.6 868.0,51.1 868.8,51.1 869.5,55.3 870.3,63.9 871.1,59.6 871.8,55.3 872.6,55.3 873.4,46.8 874.2,51.1 874.9,59.6 875.7,55.3 876.5,55.3 877.3,51.1 878.0,55.3 878.8,46.8 879.6,51.1 880.4,51.1 881.1,59.6 881.9,59.6 882.7,55.3 883.5,51.1 884.2,59.6 885.0,51.1 885.8,55.3 886.5,51.1 887.3,55.3 888.1,63.9 888.9,68.1 889.6,42.5 890.4,46.8 891.2,63.9 892.0,59.6 892.7,51.1 893.5,46.8 894.3,68.1 895.1,68.1 895.8,51.1 896.6,42.5 897.4,51.1 898.1,63.9 898.9,51.1 899.7,46.8 900.5,46.8 901.2,68.1 902.0,55.3 902.8,46.8 903.6,63.9 904.3,51.1 905.1,51.1 905.9,55.3 906.7,55.3 907.4,55.3 908.2,55.3 909.0,55.3 909.8,55.3 910.5,55.3 911.3,51.1 912.1,59.6 912.8,55.3 913.6,59.6 914.4,59.6 915.2,55.3 915.9,59.6 916.7,51.1 917.5,51.1 918.3,59.6 919.0,51.1 919.8,46.8 920.6,51.1 921.4,59.6 922.1,63.9 922.9,46.8 923.7,98.0 924.5,102.3 925.2,106.5 926.0,102.3" fill="none" stroke="#2563eb" stroke-width="1.5"/>
</svg>
