<svg xmlns="http://www.w3.org/2000/svg" width="960" height="260" viewBox="0 0 960 260">
  <rect width="100%" height="100%" fill="#ffffff"/>
  <text x="34" y="22" font-family="sans-serif" font-size="14" fill="#111827">r1032c0_849aa7f8.dat.jsonl byte 13</text>
  <line x1="34" y1="226" x2="926" y2="226" stroke="#9ca3af" stroke-width="1"/>
  <line x1="34" y1="34" x2="34" y2="226" stroke="#9ca3af" stroke-width="1"/>
  <text x="34" y="252" font-family="sans-serif" font-size="11" fill="#4b5563">record order</text>
  <text x="38" y="26" font-family="sans-serif" font-size="11" fill="#4b5563">min=129 max=133</text>
  <polyline points="34.0,82.0 34.8,82.0 35.6,82.0 36.3,82.0 37.1,82.0 37.9,82.0 38.7,178.0 39.4,178.0 40.2,178.0 41.0,226.0 41.8,226.0 42.5,226.0 43.3,226.0 44.1,226.0 44.9,226.0 45.6,226.0 46.4,226.0 47.2,226.0 48.0,226.0 48.8,226.0 49.5,226.0 50.3,226.0 51.1,226.0 51.9,226.0 52.6,226.0 53.4,226.0 54.2,226.0 55.0,226.0 55.7,226.0 56.5,226.0 57.3,226.0 58.1,226.0 58.8,226.0 59.6,226.0 60.4,226.0 61.2,226.0 61.9,226.0 62.7,226.0 63.5,226.0 64.3,226.0 65.1,226.0 65.8,226.0 66.6,178.0 67.4,178.0 68.2,178.0 68.9,178.0 69.7,178.0 70.5,226.0 71.3,226.0 72.0,226.0 72.8,226.0 73.6,226.0 74.4,226.0 75.1,226.0 75.9,226.0 76.7,226.0 77.5,226.0 78.3,226.0 79.0,226.0 79.8,226.0 80.6,226.0 81.4,226.0 82.1,226.0 82.9,226.0 83.7,226.0 84.5,226.0 85.2,226.0 86.0,226.0 86.8,226.0 87.6,178.0 88.3,178.0 89.1,178.0 89.9,178.0 90.7,178.0 91.4,178.0 92.2,178.0 93.0,82.0 93.8,82.0 94.6,82.0 95.3,82.0 96.1,82.0 96.9,82.0 97.7,82.0 98.4,82.0 99.2,82.0 100.0,82.0 100.8,82.0 101.5,34.0 102.3,34.0 103.1,34.0 103.9,34.0 104.6,34.0 105.4,34.0 106.2,34.0 107.0,34.0 107.8,34.0 108.5,34.0 109.3,34.0 110.1,34.0 110.9,34.0 111.6,34.0 112.4,34.0 113.2,82.0 114.0,82.0 114.7,82.0 115.5,82.0 116.3,82.0 117.1,82.0 117.8,82.0 118.6,82.0 119.4,82.0 120.2,82.0 120.9,82.0 121.7,82.0 122.5,82.0 123.3,178.0 124.1,178.0 124.8,178.0 125.6,178.0 126.4,178.0 127.2,178.0 127.9,178.0 128.7,178.0 129.5,178.0 130.3,178.0 131.0,178.0 131.8,178.0 132.6,178.0 133.4,178.0 134.1,178.0 134.9,178.0 135.7,178.0 136.5,178.0 137.3,178.0 138.0,178.0 138.8,178.0 139.6,178.0 140.4,178.0 141.1,178.0 141.9,178.0 142.7,178.0 143.5,178.0 144.2,178.0 145.0,178.0 145.8,178.0 146.6,178.0 147.3,178.0 148.1,178.0 148.9,178.0 149.7,178.0 150.4,178.0 151.2,178.0 152.0,178.0 152.8,226.0 153.6,226.0 154.3,226.0 155.1,226.0 155.9,226.0 156.7,226.0 157.4,226.0 158.2,226.0 159.0,226.0 159.8,226.0 160.5,226.0 161.3,226.0 162.1,226.0 162.9,226.0 163.6,226.0 164.4,226.0 165.2,226.0 166.0,226.0 166.8,226.0 167.5,178.0 168.3,178.0 169.1,178.0 169.9,178.0 170.6,178.0 171.4,178.0 172.2,178.0 173.0,178.0 173.7,178.0 174.5,178.0 175.3,178.0 176.1,178.0 176.8,178.0 177.6,178.0 178.4,178.0 179.2,178.0 179.9,82.0 180.7,82.0 181.5,82.0 182.3,82.0 183.1,82.0 183.8,82.0 184.6,82.0 185.4,82.0 186.2,82.0 186.9,82.0 187.7,82.0 188.5,82.0 189.3,82.0 190.0,82.0 190.8,82.0 191.6,82.0 192.4,82.0 193.1,82.0 193.9,82.0 194.7,82.0 195.5,82.0 196.3,82.0 197.0,82.0 197.8,178.0 198.6,178.0 199.4,178.0 200.1,178.0 200.9,178.0 201.7,178.0 202.5,178.0 203.2,178.0 204.0,178.0 204.8,178.0 205.6,178.0 206.3,178.0 207.1,178.0 207.9,178.0 208.7,178.0 209.4,178.0 210.2,178.0 211.0,178.0 211.8,178.0 212.6,178.0 213.3,178.0 214.1,178.0 214.9,178.0 215.7,178.0 216.4,178.0 217.2,178.0 218.0,226.0 218.8,226.0 219.5,226.0 220.3,226.0 221.1,226.0 221.9,226.0 222.6,226.0 223.4,226.0 224.2,226.0 225.0,226.0 225.8,226.0 226.5,226.0 227.3,226.0 228.1,226.0 228.9,226.0 229.6,226.0 230.4,226.0 231.2,226.0 232.0,226.0 232.7,226.0 233.5,226.0 234.3,226.0 235.1,226.0 235.8,226.0 236.6,226.0 237.4,226.0 238.2,226.0 239.0,226.0 239.7,226.0 240.5,226.0 241.3,226.0 242.1,226.0 242.8,226.0 243.6,226.0 244.4,226.0 245.2,226.0 245.9,178.0 246.7,178.0 247.5,178.0 248.3,178.0 249.0,178.0 249.8,178.0 250.6,178.0 251.4,178.0 252.1,178.0 252.9,178.0 253.7,178.0 254.5,178.0 255.3,178.0 256.0,178.0 256.8,178.0 257.6,178.0 258.4,178.0 259.1,178.0 259.9,178.0 260.7,178.0 261.5,178.0 262.2,178.0 263.0,178.0 263.8,178.0 264.6,178.0 265.3,178.0 266.1,178.0 266.9,178.0 267.7,178.0 268.5,178.0 269.2,178.0 270.0,178.0 270.8,178.0 271.6,178.0 272.3,178.0 273.1,178.0 273.9,178.0 274.7,178.0 275.4,178.0 276.2,178.0 277.0,178.0 277.8,178.0 278.5,178.0 279.3,178.0 280.1,178.0 280.9,178.0 281.6,178.0 282.4,178.0 283.2,178.0 284.0,178.0 284.8,178.0 285.5,178.0 286.3,178.0 287.1,178.0 287.9,178.0 288.6,178.0 289.4,178.0 290.2,178.0 291.0,178.0 291.7,178.0 292.5,178.0 293.3,178.0 294.1,178.0 294.8,178.0 295.6,178.0 296.4,178.0 297.2,178.0 298.0,178.0 298.7,178.0 299.5,178.0 300.3,178.0 301.1,178.0 301.8,178.0 302.6,178.0 303.4,178.0 304.2,178.0 304.9,178.0 305.7,178.0 306.5,178.0 307.3,178.0 308.0,178.0 308.8,178.0 309.6,178.0 310.4,178.0 311.1,178.0 311.9,178.0 312.7,178.0 313.5,178.0 314.3,178.0 315.0,178.0 315.8,178.0 316.6,178.0 317.4,178.0 318.1,178.0 318.9,178.0 319.7,82.0 320.5,82.0 321.2,82.0 322.0,82.0 322.8,82.0 323.6,82.0 324.3,82.0 325.1,82.0 325.9,82.0 326.7,82.0 327.5,82.0 328.2,82.0 329.0,82.0 329.8,34.0 330.6,34.0 331.3,34.0 332.1,34.0 332.9,34.0 333.7,34.0 334.4,82.0 335.2,82.0 336.0,82.0 336.8,82.0 337.5,82.0 338.3,82.0 339.1,82.0 339.9,82.0 340.6,82.0 341.4,82.0 342.2,82.0 343.0,178.0 343.8,178.0 344.5,178.0 345.3,178.0 346.1,178.0 346.9,178.0 347.6,178.0 348.4,178.0 349.2,178.0 350.0,178.0 350.7,178.0 351.5,178.0 352.3,178.0 353.1,178.0 353.8,178.0 354.6,178.0 355.4,178.0 356.2,178.0 357.0,178.0 357.7,178.0 358.5,178.0 359.3,178.0 360.1,178.0 360.8,178.0 361.6,178.0 362.4,178.0 363.2,178.0 363.9,178.0 364.7,178.0 365.5,178.0 366.3,178.0 367.0,82.0 367.8,82.0 368.6,82.0 369.4,82.0 370.1,82.0 370.9,82.0 371.7,178.0 372.5,178.0 373.3,178.0 374.0,178.0 374.8,178.0 375.6,178.0 376.4,178.0 377.1,178.0 377.9,178.0 378.7,178.0 379.5,178.0 380.2,178.0 381.0,178.0 381.8,178.0 382.6,178.0 383.3,178.0 384.1,178.0 384.9,178.0 385.7,178.0 386.5,178.0 387.2,178.0 388.0,178.0 388.8,178.0 389.6,178.0 390.3,178.0 391.1,178.0 391.9,178.0 392.7,178.0 393.4,178.0 394.2,178.0 395.0,178.0 395.8,178.0 396.5,178.0 397.3,178.0 398.1,178.0 398.9,178.0 399.7,178.0 400.4,178.0 401.2,178.0 402.0,178.0 402.8,178.0 403.5,178.0 404.3,178.0 405.1,178.0 405.9,178.0 406.6,178.0 407.4,178.0 408.2,178.0 409.0,178.0 409.7,178.0 410.5,178.0 411.3,178.0 412.1,178.0 412.8,178.0 413.6,178.0 414.4,178.0 415.2,178.0 416.0,178.0 416.7,178.0 417.5,178.0 418.3,178.0 419.1,178.0 419.8,178.0 420.6,178.0 421.4,178.0 422.2,178.0 422.9,178.0 423.7,178.0 424.5,178.0 425.3,178.0 426.0,178.0 426.8,178.0 427.6,178.0 428.4,178.0 429.2,178.0 429.9,178.0 430.7,178.0 431.5,178.0 432.3,178.0 433.0,178.0 433.8,178.0 434.6,178.0 435.4,178.0 436.1,178.0 436.9,178.0 437.7,178.0 438.5,178.0 439.2,178.0 440.0,178.0 440.8,178.0 441.6,178.0 442.3,178.0 443.1,178.0 443.9,178.0 444.7,178.0 445.5,178.0 446.2,178.0 447.0,178.0 447.8,178.0 448.6,178.0 449.3,178.0 450.1,178.0 450.9,178.0 451.7,178.0 452.4,178.0 453.2,178.0 454.0,178.0 454.8,178.0 455.5,178.0 456.3,178.0 457.1,178.0 457.9,178.0 458.7,178.0 459.4,178.0 460.2,178.0 461.0,178.0 461.8,178.0 462.5,178.0 463.3,178.0 464.1,226.0 464.9,226.0 465.6,226.0 466.4,226.0 467.2,226.0 468.0,226.0 468.7,226.0 469.5,226.0 470.3,226.0 471.1,226.0 471.8,226.0 472.6,226.0 473.4,226.0 474.2,226.0 475.0,226.0 475.7,226.0 476.5,226.0 477.3,226.0 478.1,226.0 478.8,226.0 479.6,226.0 480.4,226.0 481.2,226.0 481.9,226.0 482.7,226.0 483.5,226.0 484.3,226.0 485.0,226.0 485.8,226.0 486.6,226.0 487.4,178.0 488.2,178.0 488.9,178.0 489.7,178.0 490.5,226.0 491.3,226.0 492.0,226.0 492.8,226.0 493.6,226.0 494.4,226.0 495.1,226.0 495.9,226.0 496.7,226.0 497.5,226.0 498.2,226.0 499.0,226.0 499.8,226.0 500.6,226.0 501.3,226.0 502.1,226.0 502.9,226.0 503.7,226.0 504.5,226.0 505.2,226.0 506.0,226.0 506.8,226.0 507.6,226.0 508.3,226.0 509.1,226.0 509.9,226.0 510.7,178.0 511.4,178.0 512.2,178.0 513.0,178.0 513.8,178.0 514.5,178.0 515.3,226.0 516.1,226.0 516.9,226.0 517.7,226.0 518.4,226.0 519.2,226.0 520.0,226.0 520.8,226.0 521.5,226.0 522.3,226.0 523.1,226.0 523.9,226.0 524.6,226.0 525.4,226.0 526.2,226.0 527.0,226.0 527.7,226.0 528.5,226.0 529.3,226.0 530.1,226.0 530.8,226.0 531.6,226.0 532.4,226.0 533.2,226.0 534.0,226.0 534.7,226.0 535.5,226.0 536.3,226.0 537.1,226.0 537.8,226.0 538.6,226.0 539.4,226.0 540.2,226.0 540.9,226.0 541.7,178.0 542.5,226.0 543.3,178.0 544.0,226.0 544.8,226.0 545.6,226.0 546.4,226.0 547.2,226.0 547.9,226.0 548.7,178.0 549.5,226.0 550.3,178.0 551.0,178.0 551.8,178.0 552.6,178.0 553.4,178.0 554.1,178.0 554.9,178.0 555.7,178.0 556.5,178.0 557.2,178.0 558.0,178.0 558.8,178.0 559.6,178.0 560.3,178.0 561.1,178.0 561.9,178.0 562.7,178.0 563.5,178.0 564.2,178.0 565.0,178.0 565.8,178.0 566.6,178.0 567.3,178.0 568.1,82.0 568.9,82.0 569.7,82.0 570.4,82.0 571.2,82.0 572.0,82.0 572.8,82.0 573.5,82.0 574.3,82.0 575.1,82.0 575.9,82.0 576.7,82.0 577.4,82.0 578.2,82.0 579.0,82.0 579.8,82.0 580.5,178.0 581.3,178.0 582.1,178.0 582.9,178.0 583.6,178.0 584.4,178.0 585.2,178.0 586.0,178.0 586.7,178.0 587.5,178.0 588.3,178.0 589.1,178.0 589.9,178.0 590.6,178.0 591.4,82.0 592.2,82.0 593.0,82.0 593.7,82.0 594.5,82.0 595.3,82.0 596.1,82.0 596.8,82.0 597.6,82.0 598.4,82.0 599.2,82.0 599.9,34.0 600.7,34.0 601.5,34.0 602.3,34.0 603.0,34.0 603.8,34.0 604.6,34.0 605.4,34.0 606.2,34.0 606.9,34.0 607.7,34.0 608.5,34.0 609.3,34.0 610.0,34.0 610.8,34.0 611.6,34.0 612.4,34.0 613.1,34.0 613.9,34.0 614.7,34.0 615.5,34.0 616.2,34.0 617.0,34.0 617.8,34.0 618.6,34.0 619.4,34.0 620.1,34.0 620.9,34.0 621.7,34.0 622.5,34.0 623.2,34.0 624.0,34.0 624.8,34.0 625.6,34.0 626.3,34.0 627.1,34.0 627.9,34.0 628.7,34.0 629.4,34.0 630.2,34.0 631.0,34.0 631.8,34.0 632.5,34.0 633.3,34.0 634.1,34.0 634.9,34.0 635.7,34.0 636.4,34.0 637.2,34.0 638.0,34.0 638.8,34.0 639.5,34.0 640.3,34.0 641.1,34.0 641.9,34.0 642.6,34.0 643.4,34.0 644.2,34.0 645.0,34.0 645.7,34.0 646.5,34.0 647.3,34.0 648.1,34.0 648.9,34.0 649.6,34.0 650.4,34.0 651.2,34.0 652.0,34.0 652.7,34.0 653.5,34.0 654.3,34.0 655.1,34.0 655.8,34.0 656.6,34.0 657.4,34.0 658.2,34.0 658.9,34.0 659.7,34.0 660.5,34.0 661.3,34.0 662.0,34.0 662.8,34.0 663.6,34.0 664.4,34.0 665.2,34.0 665.9,34.0 666.7,34.0 667.5,34.0 668.3,34.0 669.0,34.0 669.8,34.0 670.6,34.0 671.4,34.0 672.1,34.0 672.9,34.0 673.7,34.0 674.5,34.0 675.2,34.0 676.0,34.0 676.8,34.0 677.6,34.0 678.4,34.0 679.1,34.0 679.9,34.0 680.7,34.0 681.5,34.0 682.2,34.0 683.0,34.0 683.8,34.0 684.6,34.0 685.3,34.0 686.1,34.0 686.9,34.0 687.7,34.0 688.4,34.0 689.2,34.0 690.0,34.0 690.8,34.0 691.5,34.0 692.3,34.0 693.1,34.0 693.9,34.0 694.7,34.0 695.4,34.0 696.2,34.0 697.0,34.0 697.8,34.0 698.5,34.0 699.3,34.0 700.1,34.0 700.9,34.0 701.6,34.0 702.4,34.0 703.2,34.0 704.0,34.0 704.7,34.0 705.5,34.0 706.3,34.0 707.1,34.0 707.9,34.0 708.6,34.0 709.4,34.0 710.2,34.0 711.0,34.0 711.7,34.0 712.5,34.0 713.3,34.0 714.1,34.0 714.8,34.0 715.6,34.0 716.4,34.0 717.2,34.0 717.9,34.0 718.7,34.0 719.5,34.0 720.3,34.0 721.0,34.0 721.8,34.0 722.6,34.0 723.4,34.0 724.2,34.0 724.9,34.0 725.7,82.0 726.5,82.0 727.3,82.0 728.0,82.0 728.8,82.0 729.6,82.0 730.4,82.0 731.1,82.0 731.9,82.0 732.7,82.0 733.5,82.0 734.2,82.0 735.0,178.0 735.8,178.0 736.6,178.0 737.4,178.0 738.1,178.0 738.9,178.0 739.7,178.0 740.5,178.0 741.2,178.0 742.0,178.0 742.8,178.0 743.6,178.0 744.3,178.0 745.1,178.0 745.9,178.0 746.7,178.0 747.4,178.0 748.2,178.0 749.0,178.0 749.8,178.0 750.6,178.0 751.3,178.0 752.1,178.0 752.9,226.0 753.7,226.0 754.4,226.0 755.2,226.0 756.0,226.0 756.8,226.0 757.5,226.0 758.3,226.0 759.1,226.0 759.9,226.0 760.6,226.0 761.4,226.0 762.2,226.0 763.0,226.0 763.7,226.0 764.5,226.0 765.3,226.0 766.1,226.0 766.9,226.0 767.6,226.0 768.4,226.0 769.2,226.0 770.0,226.0 770.7,226.0 771.5,226.0 772.3,226.0 773.1,226.0 773.8,226.0 774.6,226.0 775.4,226.0 776.2,226.0 776.9,226.0 777.7,226.0 778.5,226.0 779.3,226.0 780.1,226.0 780.8,226.0 781.6,226.0 782.4,226.0 783.2,226.0 783.9,226.0 784.7,226.0 785.5,178.0 786.3,178.0 787.0,178.0 787.8,178.0 788.6,178.0 789.4,178.0 790.1,178.0 790.9,178.0 791.7,178.0 792.5,178.0 793.2,178.0 794.0,178.0 794.8,178.0 795.6,178.0 796.4,178.0 797.1,82.0 797.9,82.0 798.7,82.0 799.5,82.0 800.2,82.0 801.0,82.0 801.8,82.0 802.6,82.0 803.3,82.0 804.1,82.0 804.9,82.0 805.7,34.0 806.4,34.0 807.2,34.0 808.0,34.0 808.8,34.0 809.6,34.0 810.3,34.0 811.1,34.0 811.9,34.0 812.7,34.0 813.4,34.0 814.2,34.0 815.0,34.0 815.8,34.0 816.5,34.0 817.3,34.0 818.1,34.0 818.9,34.0 819.6,34.0 820.4,34.0 821.2,34.0 822.0,34.0 822.7,34.0 823.5,82.0 824.3,82.0 825.1,34.0 825.9,34.0 826.6,34.0 827.4,34.0 828.2,34.0 829.0,34.0 829.7,34.0 830.5,34.0 831.3,34.0 832.1,34.0 832.8,34.0 833.6,34.0 834.4,34.0 835.2,34.0 835.9,34.0 836.7,34.0 837.5,34.0 838.3,34.0 839.1,34.0 839.8,34.0 840.6,34.0 841.4,34.0 842.2,82.0 842.9,82.0 843.7,82.0 844.5,82.0 845.3,82.0 846.0,82.0 846.8,82.0 847.6,82.0 848.4,178.0 849.1,178.0 849.9,178.0 850.7,178.0 851.5,178.0 852.2,178.0 853.0,178.0 853.8,178.0 854.6,178.0 855.4,178.0 856.1,178.0 856.9,178.0 857.7,178.0 858.5,178.0 859.2,178.0 860.0,178.0 860.8,178.0 861.6,178.0 862.3,178.0 863.1,226.0 863.9,226.0 864.7,226.0 865.4,226.0 866.2,226.0 867.0,226.0 867.8,226.0 868.6,226.0 869.3,226.0 870.1,226.0 870.9,226.0 871.7,226.0 872.4,226.0 873.2,226.0 874.0,226.0 874.8,226.0 875.5,178.0 876.3,178.0 877.1,178.0 877.9,178.0 878.6,178.0 879.4,178.0 880.2,178.0 881.0,178.0 881.7,178.0 882.5,178.0 883.3,178.0 884.1,178.0 884.9,178.0 885.6,178.0 886.4,178.0 887.2,178.0 888.0,178.0 888.7,178.0 889.5,178.0 890.3,178.0 891.1,178.0 891.8,178.0 892.6,178.0 893.4,178.0 894.2,178.0 894.9,178.0 895.7,178.0 896.5,178.0 897.3,178.0 898.1,178.0 898.8,178.0 899.6,178.0 900.4,178.0 901.2,178.0 901.9,178.0 902.7,178.0 903.5,178.0 904.3,178.0 905.0,178.0 905.8,178.0 906.6,178.0 907.4,178.0 908.1,178.0 908.9,178.0 909.7,178.0 910.5,178.0 911.2,178.0 912.0,178.0 912.8,178.0 913.6,178.0 914.4,178.0 915.1,178.0 915.9,178.0 916.7,178.0 917.5,178.0 918.2,178.0 919.0,178.0 919.8,178.0 920.6,178.0 921.3,178.0 922.1,178.0 922.9,178.0 923.7,178.0 924.4,178.0 925.2,178.0 926.0,178.0" fill="none" stroke="#2563eb" stroke-width="1.5"/>
</svg>
