<svg xmlns="http://www.w3.org/2000/svg" width="980" height="320" viewBox="0 0 980 320">
<rect width="100%" height="100%" fill="#ffffff"/>
<text x="42" y="24" font-family="sans-serif" font-size="14" fill="#111827">TPS sweep: byte6 and byte7 vs time</text>
<line x1="42" y1="278" x2="938" y2="278" stroke="#9ca3af"/>
<line x1="42" y1="42" x2="42" y2="278" stroke="#9ca3af"/>
<line x1="118.4" y1="42" x2="118.4" y2="278" stroke="#d1d5db" stroke-dasharray="3 3"/>
<text x="121.4" y="54" font-family="sans-serif" font-size="10" fill="#374151">tps_closed_end</text>
<line x1="141.3" y1="42" x2="141.3" y2="278" stroke="#d1d5db" stroke-dasharray="3 3"/>
<text x="144.3" y="54" font-family="sans-serif" font-size="10" fill="#374151">tps_sweep_1_open_begin</text>
<line x1="180.5" y1="42" x2="180.5" y2="278" stroke="#d1d5db" stroke-dasharray="3 3"/>
<text x="183.5" y="54" font-family="sans-serif" font-size="10" fill="#374151">tps_sweep_1_full</text>
<line x1="203.8" y1="42" x2="203.8" y2="278" stroke="#d1d5db" stroke-dasharray="3 3"/>
<text x="206.8" y="54" font-family="sans-serif" font-size="10" fill="#374151">tps_sweep_1_close_begin</text>
<line x1="242.4" y1="42" x2="242.4" y2="278" stroke="#d1d5db" stroke-dasharray="3 3"/>
<text x="245.4" y="54" font-family="sans-serif" font-size="10" fill="#374151">tps_sweep_1_end</text>
<line x1="265.3" y1="42" x2="265.3" y2="278" stroke="#d1d5db" stroke-dasharray="3 3"/>
<text x="268.3" y="54" font-family="sans-serif" font-size="10" fill="#374151">tps_sweep_2_open_begin</text>
<line x1="304.3" y1="42" x2="304.3" y2="278" stroke="#d1d5db" stroke-dasharray="3 3"/>
<text x="307.3" y="54" font-family="sans-serif" font-size="10" fill="#374151">tps_sweep_2_full</text>
<line x1="327.8" y1="42" x2="327.8" y2="278" stroke="#d1d5db" stroke-dasharray="3 3"/>
<text x="330.8" y="54" font-family="sans-serif" font-size="10" fill="#374151">tps_sweep_2_close_begin</text>
<line x1="366.9" y1="42" x2="366.9" y2="278" stroke="#d1d5db" stroke-dasharray="3 3"/>
<text x="369.9" y="54" font-family="sans-serif" font-size="10" fill="#374151">tps_sweep_2_end</text>
<line x1="389.7" y1="42" x2="389.7" y2="278" stroke="#d1d5db" stroke-dasharray="3 3"/>
<text x="392.7" y="54" font-family="sans-serif" font-size="10" fill="#374151">tps_sweep_3_open_begin</text>
<line x1="429.3" y1="42" x2="429.3" y2="278" stroke="#d1d5db" stroke-dasharray="3 3"/>
<text x="432.3" y="54" font-family="sans-serif" font-size="10" fill="#374151">tps_sweep_3_full</text>
<line x1="453.2" y1="42" x2="453.2" y2="278" stroke="#d1d5db" stroke-dasharray="3 3"/>
<text x="456.2" y="54" font-family="sans-serif" font-size="10" fill="#374151">tps_sweep_3_close_begin</text>
<line x1="492.3" y1="42" x2="492.3" y2="278" stroke="#d1d5db" stroke-dasharray="3 3"/>
<text x="495.3" y="54" font-family="sans-serif" font-size="10" fill="#374151">tps_sweep_3_end</text>
<line x1="515.2" y1="42" x2="515.2" y2="278" stroke="#d1d5db" stroke-dasharray="3 3"/>
<text x="518.2" y="54" font-family="sans-serif" font-size="10" fill="#374151">tps_sweep_4_open_begin</text>
<line x1="554.3" y1="42" x2="554.3" y2="278" stroke="#d1d5db" stroke-dasharray="3 3"/>
<text x="557.3" y="54" font-family="sans-serif" font-size="10" fill="#374151">tps_sweep_4_full</text>
<line x1="578.2" y1="42" x2="578.2" y2="278" stroke="#d1d5db" stroke-dasharray="3 3"/>
<text x="581.2" y="54" font-family="sans-serif" font-size="10" fill="#374151">tps_sweep_4_close_begin</text>
<line x1="616.4" y1="42" x2="616.4" y2="278" stroke="#d1d5db" stroke-dasharray="3 3"/>
<text x="619.4" y="54" font-family="sans-serif" font-size="10" fill="#374151">tps_sweep_4_end</text>
<line x1="639.3" y1="42" x2="639.3" y2="278" stroke="#d1d5db" stroke-dasharray="3 3"/>
<text x="642.3" y="54" font-family="sans-serif" font-size="10" fill="#374151">tps_sweep_5_open_begin</text>
<line x1="678.5" y1="42" x2="678.5" y2="278" stroke="#d1d5db" stroke-dasharray="3 3"/>
<text x="681.5" y="54" font-family="sans-serif" font-size="10" fill="#374151">tps_sweep_5_full</text>
<line x1="702.0" y1="42" x2="702.0" y2="278" stroke="#d1d5db" stroke-dasharray="3 3"/>
<text x="705.0" y="54" font-family="sans-serif" font-size="10" fill="#374151">tps_sweep_5_close_begin</text>
<line x1="741.5" y1="42" x2="741.5" y2="278" stroke="#d1d5db" stroke-dasharray="3 3"/>
<text x="744.5" y="54" font-family="sans-serif" font-size="10" fill="#374151">tps_sweep_5_end</text>
<line x1="741.5" y1="42" x2="741.5" y2="278" stroke="#d1d5db" stroke-dasharray="3 3"/>
<text x="744.5" y="54" font-family="sans-serif" font-size="10" fill="#374151">tps_plateau_closed_begin</text>
<line x1="781.1" y1="42" x2="781.1" y2="278" stroke="#d1d5db" stroke-dasharray="3 3"/>
<text x="784.1" y="54" font-family="sans-serif" font-size="10" fill="#374151">tps_plateau_closed_end</text>
<line x1="781.1" y1="42" x2="781.1" y2="278" stroke="#d1d5db" stroke-dasharray="3 3"/>
<text x="784.1" y="54" font-family="sans-serif" font-size="10" fill="#374151">tps_plateau_25_begin</text>
<line x1="820.4" y1="42" x2="820.4" y2="278" stroke="#d1d5db" stroke-dasharray="3 3"/>
<text x="823.4" y="54" font-family="sans-serif" font-size="10" fill="#374151">tps_plateau_25_end</text>
<line x1="820.4" y1="42" x2="820.4" y2="278" stroke="#d1d5db" stroke-dasharray="3 3"/>
<text x="823.4" y="54" font-family="sans-serif" font-size="10" fill="#374151">tps_plateau_50_begin</text>
<line x1="858.6" y1="42" x2="858.6" y2="278" stroke="#d1d5db" stroke-dasharray="3 3"/>
<text x="861.6" y="54" font-family="sans-serif" font-size="10" fill="#374151">tps_plateau_50_end</text>
<line x1="858.6" y1="42" x2="858.6" y2="278" stroke="#d1d5db" stroke-dasharray="3 3"/>
<text x="861.6" y="54" font-family="sans-serif" font-size="10" fill="#374151">tps_plateau_75_begin</text>
<line x1="898.1" y1="42" x2="898.1" y2="278" stroke="#d1d5db" stroke-dasharray="3 3"/>
<text x="901.1" y="54" font-family="sans-serif" font-size="10" fill="#374151">tps_plateau_75_end</text>
<line x1="898.1" y1="42" x2="898.1" y2="278" stroke="#d1d5db" stroke-dasharray="3 3"/>
<text x="901.1" y="54" font-family="sans-serif" font-size="10" fill="#374151">tps_plateau_full_begin</text>
<line x1="937.6" y1="42" x2="937.6" y2="278" stroke="#d1d5db" stroke-dasharray="3 3"/>
<text x="940.6" y="54" font-family="sans-serif" font-size="10" fill="#374151">tps_plateau_full_end</text>
<polyline points="42.0,278.0 43.9,278.0 45.8,278.0 47.7,278.0 49.7,278.0 51.5,278.0 53.4,278.0 55.3,278.0 57.3,278.0 59.1,278.0 61.1,278.0 63.0,278.0 64.9,278.0 66.8,278.0 68.7,278.0 70.6,278.0 72.5,278.0 74.4,278.0 76.3,278.0 78.2,278.0 80.1,278.0 82.1,278.0 83.9,278.0 85.8,278.0 87.7,278.0 89.6,278.0 91.6,278.0 93.5,278.0 95.4,278.0 97.3,278.0 99.2,278.0 101.1,278.0 103.0,278.0 104.9,278.0 106.8,278.0 108.8,278.0 110.6,278.0 112.5,278.0 114.4,278.0 116.3,278.0 118.3,278.0 120.1,278.0 122.1,278.0 124.0,278.0 125.9,278.0 127.8,278.0 129.7,278.0 131.6,278.0 133.5,278.0 135.4,278.0 137.3,278.0 139.2,278.0 141.1,278.0 143.1,276.8 144.9,268.6 146.8,257.9 148.7,245.0 150.7,235.5 152.6,224.9 154.5,215.5 156.4,202.5 158.3,189.5 160.2,176.5 162.1,163.5 164.0,155.3 165.9,143.5 167.8,128.1 169.7,114.0 171.6,98.6 173.5,76.2 175.5,47.9 177.3,42.0 179.2,42.0 181.2,42.0 183.1,42.0 185.0,42.0 186.9,42.0 188.8,42.0 190.7,42.0 192.6,42.0 194.5,42.0 196.4,42.0 198.3,42.0 200.2,42.0 202.1,42.0 204.0,42.0 205.9,42.0 207.8,42.0 209.8,46.7 211.6,57.3 213.6,66.8 215.5,82.1 217.4,89.2 219.3,101.0 221.2,112.8 223.1,125.8 225.0,136.4 226.9,148.2 228.8,158.8 230.7,170.6 232.6,184.8 234.5,196.6 236.5,208.4 238.4,223.7 240.3,240.2 242.2,254.4 244.1,276.8 246.0,278.0 247.9,278.0 249.8,278.0 251.7,278.0 253.6,278.0 255.5,278.0 257.4,278.0 259.3,278.0 261.2,278.0 263.1,276.8 265.0,274.5 266.9,266.2 268.8,253.2 270.8,241.4 272.7,226.1 274.6,216.6 276.5,203.7 278.4,187.1 280.3,170.6 282.2,164.7 284.1,151.7 286.0,139.9 287.9,125.8 289.8,108.1 291.7,93.9 293.6,78.6 295.5,65.6 297.5,56.2 299.4,47.9 301.3,42.0 303.1,42.0 305.1,42.0 307.0,42.0 308.9,42.0 310.8,45.5 312.7,49.1 314.6,52.6 316.5,47.9 318.4,42.0 320.3,42.0 322.2,42.0 324.2,42.0 326.0,42.0 327.9,42.0 329.8,42.0 331.8,42.0 333.7,47.9 335.6,51.4 337.5,62.1 339.4,73.9 341.3,86.8 343.2,98.6 345.1,111.6 347.0,119.9 349.0,130.5 350.8,138.8 352.7,145.8 354.6,156.5 356.5,167.1 358.5,178.9 360.4,196.6 362.3,209.6 364.2,221.4 366.1,235.5 368.0,246.1 369.9,261.5 371.8,276.8 373.7,278.0 375.6,276.8 377.5,276.8 379.4,276.8 381.3,276.8 383.2,276.8 385.2,278.0 387.1,278.0 389.0,278.0 390.8,276.8 392.8,257.9 394.7,247.3 396.6,233.2 398.5,216.6 400.4,207.2 402.3,190.7 404.2,183.6 406.1,176.5 408.0,167.1 409.9,157.6 411.8,142.3 413.7,128.1 415.6,110.4 417.5,97.5 419.5,86.8 421.4,78.6 423.3,70.3 425.2,62.1 427.1,55.0 429.0,45.5 430.9,42.0 432.8,42.0 434.7,42.0 436.6,42.0 438.5,42.0 440.4,51.4 442.3,51.4 444.2,44.4 446.2,42.0 448.1,42.0 450.0,42.0 451.9,42.0 453.8,42.0 455.7,42.0 457.6,53.8 459.5,62.1 461.4,65.6 463.3,69.1 465.2,75.0 467.1,79.8 469.0,84.5 470.9,91.6 472.9,101.0 474.7,110.4 476.6,118.7 478.6,125.8 480.5,135.2 482.4,141.1 484.3,148.2 486.2,161.2 488.1,177.7 490.0,190.7 491.9,202.5 493.8,216.6 495.7,239.1 497.6,261.5 499.6,276.8 501.4,276.8 503.3,276.8 505.3,278.0 507.2,278.0 509.1,278.0 511.0,278.0 512.9,278.0 514.8,278.0 516.7,278.0 518.6,276.8 520.5,266.2 522.4,252.0 524.3,239.1 526.2,229.6 528.1,220.2 530.0,208.4 531.9,196.6 533.9,187.1 535.8,180.1 537.6,169.4 539.6,160.0 541.5,147.0 543.4,136.4 545.3,128.1 547.2,115.2 549.1,104.5 551.0,95.1 552.9,78.6 554.8,59.7 556.7,42.0 558.6,42.0 560.5,42.0 562.4,42.0 564.4,42.0 566.3,42.0 568.2,42.0 570.1,42.0 572.0,42.0 573.9,42.0 575.8,42.0 577.7,42.0 579.6,42.0 581.5,43.2 583.4,57.3 585.3,68.0 587.2,80.9 589.1,97.5 591.0,102.2 592.9,114.0 594.8,122.2 596.7,132.9 598.7,143.5 600.6,152.9 602.5,162.4 604.4,173.0 606.3,182.4 608.2,190.7 610.1,202.5 612.0,216.6 613.9,227.3 615.8,236.7 617.7,243.8 619.6,255.6 621.5,275.6 623.4,278.0 625.3,278.0 627.3,278.0 629.2,278.0 631.1,278.0 633.0,276.8 634.9,276.8 636.8,276.8 638.7,276.8 640.6,275.6 642.5,270.9 644.4,261.5 646.3,249.7 648.2,240.2 650.1,224.9 652.1,213.1 654.0,198.9 655.9,188.3 657.7,174.2 659.6,163.5 661.6,150.6 663.5,136.4 665.4,121.1 667.3,104.5 669.2,92.7 671.1,76.2 673.0,58.5 674.9,42.0 676.8,42.0 678.7,42.0 680.6,42.0 682.5,42.0 684.4,42.0 686.4,42.0 688.3,47.9 690.2,47.9 692.1,42.0 694.0,42.0 695.9,42.0 697.8,42.0 699.7,42.0 701.6,42.0 703.5,42.0 705.4,46.7 707.3,55.0 709.2,70.3 711.2,86.8 713.0,105.7 715.0,119.9 716.9,134.0 718.8,149.4 720.7,161.2 722.6,171.8 724.5,183.6 726.4,193.0 728.3,201.3 730.2,219.0 732.1,239.1 734.0,259.1 735.9,276.8 737.8,278.0 739.7,278.0 741.6,278.0 743.5,278.0 745.4,278.0 747.4,278.0 749.3,276.8 751.2,276.8 753.1,276.8 755.0,267.4 756.9,247.3 758.8,228.4 760.7,216.6 762.6,202.5 764.6,186.0 766.4,184.8 768.3,184.8 770.3,198.9 772.2,255.6 774.0,278.0 776.0,278.0 777.9,278.0 779.8,278.0 781.7,278.0 783.6,278.0 785.5,278.0 787.4,278.0 789.3,278.0 791.2,278.0 793.1,278.0 795.0,267.4 797.0,222.5 798.8,198.9 800.7,189.5 802.6,189.5 804.5,189.5 806.5,189.5 808.4,189.5 810.3,189.5 812.2,189.5 814.1,189.5 816.0,189.5 817.9,189.5 819.8,189.5 821.7,189.5 823.6,189.5 825.5,189.5 827.4,189.5 829.3,169.4 831.3,145.8 833.1,129.3 835.1,115.2 837.0,114.0 838.9,114.0 840.8,114.0 842.7,114.0 844.6,114.0 846.5,114.0 848.4,114.0 850.3,114.0 852.2,114.0 854.1,114.0 856.1,114.0 857.9,114.0 859.8,114.0 861.7,114.0 863.7,114.0 865.6,105.7 867.5,82.1 869.4,59.7 871.3,47.9 873.2,46.7 875.1,46.7 877.0,46.7 878.9,46.7 880.8,46.7 882.7,46.7 884.6,46.7 886.5,46.7 888.4,46.7 890.3,46.7 892.2,46.7 894.2,46.7 896.1,46.7 898.0,46.7 899.9,46.7 901.8,46.7 903.7,42.0 905.6,42.0 907.5,42.0 909.4,42.0 911.3,42.0 913.2,42.0 915.1,42.0 917.0,42.0 918.9,42.0 920.8,42.0 922.8,42.0 924.7,42.0 926.5,42.0 928.5,42.0 930.4,42.0 932.3,42.0 934.2,42.0 936.1,43.2 938.0,43.2" fill="none" stroke="#2563eb" stroke-width="1.7"/>
<rect x="750" y="33" width="10" height="10" fill="#2563eb"/>
<text x="766" y="42" font-family="sans-serif" font-size="11" fill="#111827">byte6 min=25.00 max=225.00</text>
<polyline points="42.0,278.0 43.9,278.0 45.8,278.0 47.7,278.0 49.7,278.0 51.5,278.0 53.4,278.0 55.3,278.0 57.3,278.0 59.1,278.0 61.1,278.0 63.0,278.0 64.9,278.0 66.8,278.0 68.7,278.0 70.6,278.0 72.5,278.0 74.4,278.0 76.3,278.0 78.2,278.0 80.1,278.0 82.1,278.0 83.9,278.0 85.8,278.0 87.7,278.0 89.6,278.0 91.6,278.0 93.5,278.0 95.4,278.0 97.3,278.0 99.2,278.0 101.1,278.0 103.0,278.0 104.9,278.0 106.8,278.0 108.8,278.0 110.6,278.0 112.5,278.0 114.4,278.0 116.3,278.0 118.3,278.0 120.1,278.0 122.1,278.0 124.0,278.0 125.9,278.0 127.8,278.0 129.7,278.0 131.6,278.0 133.5,278.0 135.4,278.0 137.3,278.0 139.2,278.0 141.1,278.0 143.1,278.0 144.9,270.4 146.8,258.3 148.7,246.2 150.7,237.2 152.6,225.1 154.5,216.0 156.4,202.4 158.3,190.3 160.2,178.2 162.1,164.5 164.0,155.5 165.9,144.9 167.8,129.7 169.7,114.6 171.6,99.5 173.5,76.8 175.5,49.6 177.3,42.0 179.2,42.0 181.2,42.0 183.1,42.0 185.0,42.0 186.9,42.0 188.8,42.0 190.7,42.0 192.6,42.0 194.5,42.0 196.4,42.0 198.3,42.0 200.2,42.0 202.1,42.0 204.0,42.0 205.9,42.0 207.8,42.0 209.8,46.5 211.6,58.6 213.6,67.7 215.5,82.8 217.4,90.4 219.3,102.5 221.2,114.6 223.1,126.7 225.0,137.3 226.9,149.4 228.8,160.0 230.7,170.6 232.6,185.7 234.5,197.8 236.5,209.9 238.4,225.1 240.3,241.7 242.2,255.3 244.1,278.0 246.0,278.0 247.9,278.0 249.8,278.0 251.7,278.0 253.6,278.0 255.5,278.0 257.4,278.0 259.3,278.0 261.2,278.0 263.1,278.0 265.0,276.5 266.9,267.4 268.8,255.3 270.8,243.2 272.7,228.1 274.6,217.5 276.5,203.9 278.4,187.2 280.3,172.1 282.2,164.5 284.1,152.4 286.0,140.3 287.9,126.7 289.8,110.1 291.7,94.9 293.6,79.8 295.5,66.2 297.5,57.1 299.4,48.1 301.3,42.0 303.1,42.0 305.1,42.0 307.0,42.0 308.9,42.0 310.8,46.5 312.7,49.6 314.6,52.6 316.5,49.6 318.4,42.0 320.3,42.0 322.2,42.0 324.2,42.0 326.0,42.0 327.9,42.0 329.8,42.0 331.8,42.0 333.7,48.1 335.6,52.6 337.5,63.2 339.4,73.8 341.3,87.4 343.2,99.5 345.1,111.6 347.0,120.7 349.0,131.3 350.8,138.8 352.7,146.4 354.6,157.0 356.5,167.6 358.5,179.7 360.4,197.8 362.3,209.9 364.2,223.5 366.1,237.2 368.0,247.7 369.9,262.9 371.8,278.0 373.7,278.0 375.6,278.0 377.5,278.0 379.4,278.0 381.3,278.0 383.2,278.0 385.2,278.0 387.1,278.0 389.0,278.0 390.8,278.0 392.8,258.3 394.7,247.7 396.6,234.1 398.5,217.5 400.4,208.4 402.3,191.8 404.2,184.2 406.1,178.2 408.0,169.1 409.9,158.5 411.8,143.4 413.7,128.2 415.6,111.6 417.5,98.0 419.5,87.4 421.4,79.8 423.3,72.3 425.2,63.2 427.1,55.6 429.0,46.5 430.9,42.0 432.8,42.0 434.7,42.0 436.6,42.0 438.5,42.0 440.4,51.1 442.3,52.6 444.2,45.0 446.2,42.0 448.1,42.0 450.0,42.0 451.9,42.0 453.8,42.0 455.7,42.0 457.6,55.6 459.5,63.2 461.4,66.2 463.3,70.7 465.2,75.3 467.1,79.8 469.0,85.9 470.9,91.9 472.9,102.5 474.7,111.6 476.6,119.2 478.6,126.7 480.5,135.8 482.4,141.8 484.3,149.4 486.2,161.5 488.1,179.7 490.0,191.8 491.9,203.9 493.8,217.5 495.7,240.2 497.6,262.9 499.6,278.0 501.4,278.0 503.3,278.0 505.3,278.0 507.2,278.0 509.1,278.0 511.0,278.0 512.9,278.0 514.8,278.0 516.7,278.0 518.6,278.0 520.5,267.4 522.4,253.8 524.3,240.2 526.2,231.1 528.1,220.5 530.0,209.9 531.9,197.8 533.9,188.7 535.8,181.2 537.6,170.6 539.6,161.5 541.5,147.9 543.4,137.3 545.3,128.2 547.2,116.1 549.1,105.5 551.0,94.9 552.9,78.3 554.8,60.2 556.7,43.5 558.6,42.0 560.5,42.0 562.4,42.0 564.4,42.0 566.3,42.0 568.2,42.0 570.1,42.0 572.0,42.0 573.9,42.0 575.8,42.0 577.7,42.0 579.6,42.0 581.5,43.5 583.4,58.6 585.3,69.2 587.2,81.3 589.1,98.0 591.0,102.5 592.9,114.6 594.8,123.7 596.7,134.3 598.7,144.9 600.6,153.9 602.5,163.0 604.4,173.6 606.3,182.7 608.2,191.8 610.1,203.9 612.0,217.5 613.9,228.1 615.8,237.2 617.7,244.7 619.6,256.8 621.5,278.0 623.4,278.0 625.3,278.0 627.3,278.0 629.2,278.0 631.1,278.0 633.0,278.0 634.9,278.0 636.8,278.0 638.7,278.0 640.6,276.5 642.5,271.9 644.4,262.9 646.3,250.8 648.2,240.2 650.1,225.1 652.1,214.5 654.0,199.3 655.9,190.3 657.7,175.1 659.6,164.5 661.6,152.4 663.5,137.3 665.4,122.2 667.3,105.5 669.2,93.4 671.1,76.8 673.0,60.2 674.9,42.0 676.8,42.0 678.7,42.0 680.6,42.0 682.5,42.0 684.4,42.0 686.4,42.0 688.3,49.6 690.2,49.6 692.1,42.0 694.0,42.0 695.9,42.0 697.8,42.0 699.7,42.0 701.6,42.0 703.5,42.0 705.4,48.1 707.3,55.6 709.2,70.7 711.2,87.4 713.0,107.1 715.0,120.7 716.9,135.8 718.8,150.9 720.7,161.5 722.6,172.1 724.5,184.2 726.4,193.3 728.3,202.4 730.2,220.5 732.1,240.2 734.0,261.4 735.9,278.0 737.8,278.0 739.7,278.0 741.6,278.0 743.5,278.0 745.4,278.0 747.4,278.0 749.3,278.0 751.2,278.0 753.1,278.0 755.0,268.9 756.9,247.7 758.8,229.6 760.7,217.5 762.6,203.9 764.6,187.2 766.4,185.7 768.3,185.7 770.3,199.3 772.2,256.8 774.0,278.0 776.0,278.0 777.9,278.0 779.8,278.0 781.7,278.0 783.6,278.0 785.5,278.0 787.4,278.0 789.3,278.0 791.2,278.0 793.1,278.0 795.0,268.9 797.0,223.5 798.8,200.8 800.7,190.3 802.6,190.3 804.5,190.3 806.5,190.3 808.4,190.3 810.3,190.3 812.2,190.3 814.1,190.3 816.0,190.3 817.9,190.3 819.8,190.3 821.7,190.3 823.6,190.3 825.5,190.3 827.4,190.3 829.3,170.6 831.3,147.9 833.1,131.3 835.1,116.1 837.0,114.6 838.9,114.6 840.8,114.6 842.7,114.6 844.6,114.6 846.5,114.6 848.4,114.6 850.3,114.6 852.2,114.6 854.1,114.6 856.1,114.6 857.9,114.6 859.8,114.6 861.7,114.6 863.7,114.6 865.6,107.1 867.5,82.8 869.4,61.7 871.3,48.1 873.2,46.5 875.1,46.5 877.0,46.5 878.9,46.5 880.8,46.5 882.7,46.5 884.6,46.5 886.5,46.5 888.4,46.5 890.3,46.5 892.2,46.5 894.2,46.5 896.1,46.5 898.0,46.5 899.9,46.5 901.8,46.5 903.7,42.0 905.6,42.0 907.5,42.0 909.4,42.0 911.3,42.0 913.2,42.0 915.1,42.0 917.0,42.0 918.9,42.0 920.8,42.0 922.8,42.0 924.7,42.0 926.5,42.0 928.5,42.0 930.4,42.0 932.3,42.0 934.2,42.0 936.1,43.5 938.0,43.5" fill="none" stroke="#dc2626" stroke-width="1.7"/>
<rect x="750" y="48" width="10" height="10" fill="#dc2626"/>
<text x="766" y="57" font-family="sans-serif" font-size="11" fill="#111827">byte7 min=0.00 max=156.00</text>
</svg>
